# File created by Blade
# Date/Time:  Fri Jan 16 19:32:17 2015
# Frame Rate: 120.000 fps
#------------------------------------------------------
:FULLY-SPECIFIED
:DEGREES
993
root 19.792854 35.499890 -20.991905 10.868737 9.556169 0.074525
Spine -22.559468 -4.192649 1.902032
Head 14.650697 32.726358 7.256695
LeftShoulder -11.609031 -29.030812 16.902284
LeftArm 10.331833 11.247470 -6.135224
LeftForeArm 19.407901 0.000000 3.328576
LeftHand -5.993249 0.000000 9.977409
LeftHandThumb1 -26.253704 0.000000 33.147579
RightShoulder -10.471272 -2.050320 -14.966360
RightArm -358.860041 44.052875 -350.250035
RightForeArm -37.533695 -0.000000 3.087360
RightHand -4.535002 0.000000 4.776300
RightHandThumb1 -24.326973 -0.000000 -32.862282
LeftUpLeg -3.214030 1.769109 0.501103
LeftLeg -6.689332 -0.000000 0.000000
LeftFoot -18.907609 27.500242 -11.874722
LeftToeBase 25.892676 -0.000000 -0.000000
RightUpLeg -1.015770 -15.599265 -1.190019
RightLeg -4.802179 -0.000000 0.000000
RightFoot -21.703331 -24.834595 18.592054
RightToeBase 24.905886 -0.000000 -0.000000
994
root 19.795622 35.498619 -20.990138 10.901709 9.513483 0.074959
Spine -22.628673 -4.189013 1.992589
Head 14.704469 34.105457 7.446984
LeftShoulder -11.597731 -29.073314 16.925528
LeftArm 10.332528 11.187759 -6.231519
LeftForeArm 19.574369 -0.000000 3.243239
LeftHand -5.981969 -0.000000 10.189223
LeftHandThumb1 -26.253704 0.000000 33.147579
RightShoulder -10.527656 -2.148914 -14.989967
RightArm -358.675252 44.002464 -350.065830
RightForeArm -37.362084 -0.000000 3.046149
RightHand -4.580089 -0.000000 4.857891
RightHandThumb1 -24.326973 -0.000000 -32.862282
LeftUpLeg -3.238609 1.802725 0.489802
LeftLeg -6.688523 -0.000000 0.000000
LeftFoot -18.924493 27.510844 -11.862347
LeftToeBase 25.903445 -0.000000 -0.000000
RightUpLeg -1.056895 -15.581983 -1.191555
RightLeg -4.792788 -0.000000 0.000000
RightFoot -21.704950 -24.825829 18.541817
RightToeBase 24.965676 -0.000000 -0.000000
995
root 19.797104 35.497251 -20.988706 10.938305 9.474245 0.069795
Spine -22.694459 -4.188860 2.075052
Head 14.716502 35.323416 7.567757
LeftShoulder -11.596650 -29.152747 16.963366
LeftArm 10.324671 11.276627 -6.295791
LeftForeArm 19.648684 -0.000000 3.180804
LeftHand -5.867125 0.000000 10.279041
LeftHandThumb1 -26.253704 0.000000 33.147579
RightShoulder -10.540754 -2.128958 -15.018213
RightArm -358.611949 43.961398 -349.980992
RightForeArm -37.328156 -0.000000 3.019233
RightHand -4.525279 0.000000 5.001497
RightHandThumb1 -24.326973 -0.000000 -32.862282
LeftUpLeg -3.270385 1.822579 0.487775
LeftLeg -6.682572 -0.000000 0.000000
LeftFoot -18.934759 27.531147 -11.817155
LeftToeBase 25.934041 -0.000000 -0.000000
RightUpLeg -1.102312 -15.550669 -1.184214
RightLeg -4.787987 -0.000000 0.000000
RightFoot -21.708839 -24.826674 18.546036
RightToeBase 24.918323 -0.000000 -0.000000
996
root 19.798640 35.495855 -20.986510 10.961781 9.444879 0.068957
Spine -22.742553 -4.193975 2.146988
Head 14.730470 36.524953 7.710200
LeftShoulder -11.576981 -29.215741 16.979121
LeftArm 10.315821 11.370414 -6.341953
LeftForeArm 19.717892 -0.000000 3.116207
LeftHand -6.020331 -0.000000 10.442551
LeftHandThumb1 -26.253704 0.000000 33.147579
RightShoulder -10.530692 -2.067023 -15.029244
RightArm -358.627274 43.952918 -349.968903
RightForeArm -37.331089 0.000000 2.970951
RightHand -4.591908 -0.000000 5.040674
RightHandThumb1 -24.326973 -0.000000 -32.862282
LeftUpLeg -3.285599 1.828488 0.484070
LeftLeg -6.682534 -0.000000 0.000000
LeftFoot -18.951936 27.542767 -11.818245
LeftToeBase 25.950022 -0.000000 -0.000000
RightUpLeg -1.132431 -15.544270 -1.182665
RightLeg -4.777513 -0.000000 0.000000
RightFoot -21.703338 -24.774161 18.567761
RightToeBase 24.836667 -0.000000 -0.000000
997
root 19.799791 35.494580 -20.984130 10.982917 9.411073 0.068694
Spine -22.784993 -4.214558 2.217335
Head 14.704498 37.678620 7.801048
LeftShoulder -11.604426 -29.258313 16.996890
LeftArm 10.387573 11.415309 -6.371256
LeftForeArm 19.915854 -0.000000 2.949419
LeftHand -5.993852 -0.000000 10.358176
LeftHandThumb1 -26.253704 0.000000 33.147579
RightShoulder -10.503267 -2.014357 -15.032428
RightArm -358.662201 43.921182 -349.955413
RightForeArm -37.257974 -0.000000 3.005504
RightHand -4.641633 0.000000 5.134187
RightHandThumb1 -24.326973 -0.000000 -32.862282
LeftUpLeg -3.300361 1.857026 0.476457
LeftLeg -6.676746 -0.000000 0.000000
LeftFoot -18.972565 27.543720 -11.827925
LeftToeBase 25.917297 -0.000000 -0.000000
RightUpLeg -1.158024 -15.509951 -1.185189
RightLeg -4.771110 -0.000000 0.000000
RightFoot -21.722118 -24.811405 18.492213
RightToeBase 25.004086 -0.000000 -0.000000
998
root 19.800850 35.493309 -20.981852 11.009157 9.383950 0.060343
Spine -22.842858 -4.236191 2.303135
Head 14.697278 38.738700 7.885221
LeftShoulder -11.600621 -29.316129 16.992635
LeftArm 10.384280 11.566931 -6.357315
LeftForeArm 19.906523 -0.000000 2.886199
LeftHand -5.943243 -0.000000 10.395267
LeftHandThumb1 -26.253704 0.000000 33.147579
RightShoulder -10.497750 -2.046378 -15.063252
RightArm -358.623132 43.981505 -349.853983
RightForeArm -37.200237 0.000000 3.002228
RightHand -4.585875 0.000000 5.230779
RightHandThumb1 -24.326973 -0.000000 -32.862282
LeftUpLeg -3.321167 1.859281 0.482049
LeftLeg -6.672658 -0.000000 0.000000
LeftFoot -18.988954 27.563180 -11.801487
LeftToeBase 25.909534 -0.000000 -0.000000
RightUpLeg -1.193159 -15.475504 -1.175874
RightLeg -4.755424 -0.000000 0.000000
RightFoot -21.731002 -24.820574 18.505833
RightToeBase 24.936336 -0.000000 -0.000000
999
root 19.803118 35.492480 -20.978119 11.016250 9.345894 0.054700
Spine -22.875000 -4.241024 2.378092
Head 14.675155 39.737655 7.934332
LeftShoulder -11.604261 -29.377662 16.992333
LeftArm 10.405707 11.657273 -6.367934
LeftForeArm 19.961161 -0.000000 2.785040
LeftHand -5.958243 -0.000000 10.436381
LeftHandThumb1 -26.253704 0.000000 33.147579
RightShoulder -10.508427 -2.068817 -15.050484
RightArm -358.620077 44.225987 -349.826690
RightForeArm -37.447509 -0.000000 3.076551
RightHand -4.555170 0.000000 5.398430
RightHandThumb1 -24.326973 -0.000000 -32.862282
LeftUpLeg -3.313706 1.886818 0.477899
LeftLeg -6.680215 -0.000000 0.000000
LeftFoot -19.000405 27.590415 -11.771501
LeftToeBase 25.954401 -0.000000 -0.000000
RightUpLeg -1.205520 -15.424977 -1.180761
RightLeg -4.743987 -0.000000 0.000000
RightFoot -21.739597 -24.826369 18.503508
RightToeBase 24.961568 -0.000000 -0.000000
1000
root 19.804589 35.491157 -20.975331 11.034950 9.316361 0.056094
Spine -22.922677 -4.268207 2.433622
Head 14.661015 40.765474 8.052449
LeftShoulder -11.639287 -29.408321 17.055767
LeftArm 10.422366 11.596697 -6.450528
LeftForeArm 20.103411 -0.000000 2.679926
LeftHand -5.978309 -0.000000 10.433051
LeftHandThumb1 -26.253704 0.000000 33.147579
RightShoulder -10.494097 -2.113190 -15.062866
RightArm -358.570906 44.192105 -349.727612
RightForeArm -37.207463 -0.000000 3.047011
RightHand -4.510162 0.000000 5.396252
RightHandThumb1 -24.326973 -0.000000 -32.862282
LeftUpLeg -3.322783 1.908192 0.468854
LeftLeg -6.681439 -0.000000 0.000000
LeftFoot -19.018344 27.598979 -11.778750
LeftToeBase 25.954036 -0.000000 -0.000000
RightUpLeg -1.226723 -15.399031 -1.184378
RightLeg -4.737472 -0.000000 0.000000
RightFoot -21.740490 -24.839313 18.440926
RightToeBase 25.007925 -0.000000 -0.000000
1001
root 19.804070 35.490076 -20.970880 11.032416 9.293384 0.046071
Spine -22.939414 -4.280876 2.491294
Head 14.553922 41.544465 8.028522
LeftShoulder -11.657128 -29.459387 17.079452
LeftArm 10.422352 11.617486 -6.475787
LeftForeArm 20.142789 -0.000000 2.629702
LeftHand -5.979213 -0.000000 10.301479
LeftHandThumb1 -26.253704 0.000000 33.147579
RightShoulder -10.500869 -2.135483 -15.051071
RightArm -358.571721 44.163592 -349.713092
RightForeArm -37.120771 -0.000000 3.021482
RightHand -4.455125 -0.000000 5.507832
RightHandThumb1 -24.326973 -0.000000 -32.862282
LeftUpLeg -3.312453 1.928506 0.477829
LeftLeg -6.678498 -0.000000 0.000000
LeftFoot -19.034871 27.595679 -11.761984
LeftToeBase 25.932089 -0.000000 -0.000000
RightUpLeg -1.225188 -15.375260 -1.177633
RightLeg -4.731230 -0.000000 0.000000
RightFoot -21.743840 -24.837452 18.465108
RightToeBase 24.929823 -0.000000 -0.000000
1002
root 19.801677 35.489168 -20.971087 11.067068 9.251057 0.039595
Spine -22.999586 -4.281186 2.532387
Head 14.527808 42.316826 8.092067
LeftShoulder -11.684480 -29.489585 17.142007
LeftArm 10.435634 11.541636 -6.549858
LeftForeArm 20.295330 -0.000000 2.530916
LeftHand -5.982625 -0.000000 10.217822
LeftHandThumb1 -26.253704 0.000000 33.147579
RightShoulder -10.487673 -2.140766 -15.040622
RightArm -358.573094 44.068836 -349.697898
RightForeArm -37.048817 -0.000000 2.971098
RightHand -4.513541 -0.000000 5.567031
RightHandThumb1 -24.326973 -0.000000 -32.862282
LeftUpLeg -3.355553 1.968207 0.477760
LeftLeg -6.656328 -0.000000 0.000000
LeftFoot -19.057777 27.607902 -11.757241
LeftToeBase 25.955893 -0.000000 -0.000000
RightUpLeg -1.281912 -15.325723 -1.162571
RightLeg -4.708121 -0.000000 0.000000
RightFoot -21.761277 -24.855525 18.444543
RightToeBase 24.926037 -0.000000 -0.000000
1003
root 19.801666 35.487549 -20.963919 11.049715 9.236135 0.027328
Spine -23.018352 -4.311500 2.588106
Head 14.519807 43.018318 8.136849
LeftShoulder -11.692167 -29.525778 17.167255
LeftArm 10.430904 11.499641 -6.577844
LeftForeArm 20.220315 -0.000000 2.456514
LeftHand -5.993364 -0.000000 10.125959
LeftHandThumb1 -26.253704 0.000000 33.147579
RightShoulder -10.483100 -2.183007 -15.045304
RightArm -358.543104 44.092249 -349.633300
RightForeArm -36.931025 -0.000000 2.942402
RightHand -4.463794 0.000000 5.653992
RightHandThumb1 -24.326973 -0.000000 -32.862282
LeftUpLeg -3.319232 1.980052 0.491181
LeftLeg -6.669110 -0.000000 0.000000
LeftFoot -19.065853 27.615663 -11.731869
LeftToeBase 25.979247 -0.000000 -0.000000
RightUpLeg -1.255635 -15.331174 -1.155665
RightLeg -4.714450 -0.000000 0.000000
RightFoot -21.756139 -24.821181 18.444848
RightToeBase 24.910550 -0.000000 -0.000000
1004
root 19.799767 35.486373 -20.959907 11.058255 9.217557 0.012895
Spine -23.057670 -4.337120 2.640102
Head 14.437253 43.650551 8.156628
LeftShoulder -11.729643 -29.540612 17.225708
LeftArm 10.454590 11.393248 -6.648476
LeftForeArm 20.340989 0.000000 2.324660
LeftHand -6.036653 -0.000000 9.962843
LeftHandThumb1 -26.253704 0.000000 33.147579
RightShoulder -10.476703 -2.185915 -15.058676
RightArm -358.567281 44.206692 -349.561433
RightForeArm -37.025514 -0.000000 3.052964
RightHand -4.553165 -0.000000 5.891379
RightHandThumb1 -24.326973 -0.000000 -32.862282
LeftUpLeg -3.325558 1.975118 0.508642
LeftLeg -6.659625 -0.000000 0.000000
LeftFoot -19.091093 27.646335 -11.706019
LeftToeBase 26.011117 -0.000000 -0.000000
RightUpLeg -1.268389 -15.304540 -1.139720
RightLeg -4.703141 -0.000000 0.000000
RightFoot -21.770860 -24.807969 18.477624
RightToeBase 24.868005 -0.000000 -0.000000
1005
root 19.799270 35.484660 -20.954748 11.059118 9.186791 0.013979
Spine -23.092155 -4.351069 2.660371
Head 14.437795 44.207791 8.233004
LeftShoulder -11.727437 -29.598495 17.290602
LeftArm 10.406845 11.360419 -6.701792
LeftForeArm 20.382379 -0.000000 2.266723
LeftHand -5.926324 -0.000000 9.829798
LeftHandThumb1 -26.253704 0.000000 33.147579
RightShoulder -10.444325 -2.167246 -15.055130
RightArm -358.624186 44.184130 -349.571872
RightForeArm -36.997603 -0.000000 3.023369
RightHand -4.580228 -0.000000 5.902447
RightHandThumb1 -24.326973 -0.000000 -32.862282
LeftUpLeg -3.314735 2.004063 0.503769
LeftLeg -6.657584 -0.000000 0.000000
LeftFoot -19.108176 27.646787 -11.696398
LeftToeBase 26.023608 -0.000000 -0.000000
RightUpLeg -1.268563 -15.290759 -1.145155
RightLeg -4.692639 -0.000000 0.000000
RightFoot -21.790129 -24.833304 18.409665
RightToeBase 24.969276 -0.000000 -0.000000
